<?xml version="1.0" encoding="utf-8"?><!-- Generator: Adobe Illustrator 16.0.0, SVG Export Plug-In . SVG Version: 6.00 Build 0)  -->
<!DOCTYPE svg PUBLIC "-//W3C//DTD SVG 1.1//EN" "http://www.w3.org/Graphics/SVG/1.1/DTD/svg11.dtd">
<svg version="1.1" id="Layer_1" xmlns="http://www.w3.org/2000/svg"
    xmlns:xlink="http://www.w3.org/1999/xlink" x="0px" y="0px" width="72px" height="72px"
    viewBox="0 0 72 72" enable-background="new 0 0 72 72" xml:space="preserve">
<g>
	<path fill="#FFFFFF" d="M0.176,34.091l9.143-5.817c0.257-0.169,0.583,0.027,0.583,0.335v22.656c0,0.209,0.152,0.368,0.352,0.393
		c2.723,0.23,20.287,1.105,20.287-15.345c0-15.614-13.504-16.565-20.442-15.86L0.044,27.277C0.027,27.291,0,27.271,0,27.244V10.259
		C0,10.042,0.166,9.87,0.376,9.87h14.099c0,0,26.187-0.027,26.187,26.117c0,26.146-24.961,26.146-24.961,26.146H0.376
		C0.166,62.133,0,61.958,0,61.742v-27.32C0,34.287,0.064,34.165,0.176,34.091" />
    <g>
		<path fill="#FFFFFF" d="M61.786,20.397c-0.034,0.034-0.074,0.047-0.126,0.047h-6.271c0,0-7.977,0-12.979,9.24
			c-0.004,0.003-0.014,0.011-0.014,0c-0.053-0.358-1.063-6.633-5.096-10.92c0,0,7.555-8.98,18.586-8.98h16.018
			c0.035,0,0.046,0.034,0.02,0.058L61.786,20.397z" />
        <path fill="#FFFFFF" d="M42.512,42.086c-0.196,1.073-1.204,6.449-5.13,11.081c0,0,6.682,8.835,19.014,8.984
			c10.355,0.121,14.303,0.037,15.308,0.004c0.155,0,0.278-0.138,0.278-0.285V40.586v-9.645c0-0.21-0.229-0.352-0.416-0.254
			L53.399,40.26c-0.153,0.081-0.096,0.326,0.073,0.326h7.838c0.157,0,0.286,0.129,0.286,0.292l0.063,10.271
			c0,0.156-0.119,0.295-0.282,0.295l-4.68,0.098c-1.854,0.041-3.702-0.287-5.419-1.012c-2.872-1.209-6.824-3.673-8.672-8.448
			C42.593,42.034,42.521,42.034,42.512,42.086" />
	</g>
</g>
</svg>
